<svg
      className="get-data__cta-icon"
      viewBox="0 0 90 90"
      xmlns="http://www.w3.org/2000/svg"
    >
      <path
        d="M50.302 35.21c1.67-.344 2.968-1.544 4.26-1.888.862-.229 1.81-.229 2.842 0l2.786-.484c.534-.027 1.146-.164 1.834-.41 1.031-.372.517-.254 1.935-.946 1.417-.691 1.855-1.025 2.835-1.383.98-.36.768-.157 2.133-.436 1.366-.279 2.079-.468 2.732-.558.653-.09.708-.103 1.338 0 .63.103.803-.056 1.198.416.395.471.273.92.202 1.256-.07.337.044.47-.59.584-.634.115-.988-.206-1.498-.206s-.025-.233-1.008.206c-.982.44-1.147.778-1.836 1.066-.69.288-.31.07-1.54.345-1.232.275-1.327.224-2.463.55-1.135.326-.663.238-2.2.787l-3.072 1.1c-1.161.52-2.163.921-3.004 1.202-1.262.421-.933-.537-2.623.675-1.69 1.212-1.999 1.947-2.65 3.106-.651 1.158-.09 1.098-.52 2.532-.432 1.434-.949 2.327-1.091 2.832a1.933 1.933 0 0 0 0 1.039l1.611 2.466c.233.522.473 1.07.72 1.646.37.864.063 1.097.728 1.731.443.423 1.11.715 2.003.876l1.822.915 1.488.99 1.516 1.123 2.058 1.65 1.877 1.323 2.107.664 2.306.883 3.12.931 2.149 1.048 1.57.67 1.29.907 1.218.76 1.355.724 1.48.583 1.295.504h2.177l.818.23.694.65.271.597v1.152l-.68.2-1.103-.362h-.903l-.806-.285h-2.3l-.943-.25-1.154-.77-1.26-.666-1.449-.496-.98-.504-1.4-.237-1.338-.588-2.194-.652-.927-.21-1.744-.658-2.092-.63-2.454-.67-2.058-.799-2.394-.928-2.432-.964-2.003-.586-.975-.248h-2.532l-2.474-.339-1.064.339-.844.248-.977.586-2.371 1.474-1.976 1.218-1.134.34-1.766.762-1.597.628-1.485.758-1.223.919-1.28.74-1.013.497-1.358.981-1.392.456-1.257.25-1.553.446-1.585.502-1.005.281-1.022.27h-1.555l-.856.2h-1.994l-.643.294-.632.349-.462.303-.856.584-.454.671-.44.758-.514.524-.522.251h-1.024l-.394-.251-.421-.211-.24-.313-.48-.24h-.383l-.51.24h-.652l-.737.313H6.585l-.661-.162s-.615.088-.615-.151c0-.16.205-.488.615-.987l1.034-.442 1.039-.32 1.611-.916.863-.494 1.055-.55 1.024-.302 1.311-.201.881-.447 1.056-.25.805-.239 1.173-.53 1.29-.283 2.697-1.384c1.677-.77 2.576-1.156 2.696-1.156.12 0 .472-.177 1.057-.531l2.384-1.616.9-.913 1.558-.646 1.305-1.115 2.123-1.193 2.13-1.494 2.11-1.199 2.122-.908.413-2.4.332-2.157.218-1.91v-1.41l.303-1.242a144.387 144.387 0 0 0-.521-3.217c-.126-.673-.137-.6-.332-1.337-.196-.737-.413-.655-.413-1.471 0-.817.152-1.098.413-1.636.26-.538.695-.255.853-.977.157-.723-.163-.637-.303-1.546-.141-.91.071-1.13-.218-1.824-.29-.694.277.61-1.072-1.265a79.615 79.615 0 0 1-2.573-3.801l-2.08-3.002-1.958-3.01a65.673 65.673 0 0 1-1.547-2.219c-.854-1.274-1.424-2.26-1.662-2.566-.238-.306-.24-.141-.709-.484-.47-.343-.673-.511-.917-.703-.243-.192-.243 0-.724-.538-.481-.537-.376-1.36-.348-1.587.029-.227-.08-.307.227-.43.308-.125.633 0 .845 0h.917s.33.29.467.43.076.12.242.298c.166.178.108.205.22.538.111.333.083.325.137.528.054.203.34.577.472.761.132.185.58.703.58.703l2.556 3.05 1.202 1.372 2.08 2.497c.88 1.054 1.636 1.954 2.266 2.702.945 1.12 1.385 1.615 1.9 2.238.514.622.577.758.99 1.262.414.504.483.52.86.994.378.473.434.693.707.967.273.274.576.394.708.452.131.058.113 0 .321 0 .208 0 .458-.121.642-.21.185-.087.094-.014.305-.242.211-.227.195-.245.369-.484s.248-.212.334-.483c.086-.271 0-.362 0-.572 0-.211.1-.12 0-.422s-.175-.349-.334-.584c-.16-.235-.199-.215-.369-.451-.17-.236-.212-.329-.305-.486-.093-.157-.117-.04-.17-.32-.053-.279-.17-.326 0-.573.17-.246.411-.262.654-.38.243-.117.295-.189.524-.189.23 0 .612-.148.922-.255.31-.106.364-.122.587-.262.223-.14.108-.114.373-.342.265-.229.204-.262.545-.448.34-.187.424-.145.777-.277.354-.132.305-.204.7-.275.395-.07.442-.069.838 0 .396.069.364.135.75.275.384.14.529.171.77.277.243.105.117.007.449.254.331.248.345.14.61.536.267.395.256.48.334.868.078.388 0 .164 0 .792s.056.948 0 1.256c-.056.309-.105.186-.333.584-.228.398-.108.411-.457.796-.35.385-.613.453-.882.681-.269.228-.092.283-.492.484s-.452.003-.956.243c-.505.24-.65.2-.883.632-.233.433-1.67 1.355 0 1.012Z"
        fill="#FFF"
      />
    </svg>